<svg width="600" height="68" viewBox="0 0 600 68" fill="none" xmlns="http://www.w3.org/2000/svg">
<path d="M21.8359 7.67969H33.3594L29.0234 29.9062H43.4375L47.7344 7.67969H59.2578L47.8906 66H36.3672L41.4062 40.0625H27.0312L21.9922 66H10.4688L21.8359 7.67969ZM85.9375 45.2969C81.4583 45.2969 78.138 45.974 75.9766 47.3281C73.8151 48.6823 72.7344 50.7786 72.7344 53.6172C72.7344 55.2578 73.2552 56.612 74.2969 57.6797C75.3646 58.7474 76.7188 59.2812 78.3594 59.2812C81.4323 59.2812 84.0104 58.0703 86.0938 55.6484C88.1771 53.2266 89.5964 49.776 90.3516 45.2969H85.9375ZM102.5 41.0391L97.6953 66H86.3281L87.3047 61.1172C85.5599 63.1224 83.5547 64.6328 81.2891 65.6484C79.0495 66.638 76.4974 67.1328 73.6328 67.1328C69.7005 67.1328 66.5755 66 64.2578 63.7344C61.9661 61.4427 60.8203 58.3568 60.8203 54.4766C60.8203 48.8776 62.8385 44.6068 66.875 41.6641C70.9375 38.6953 76.7839 37.2109 84.4141 37.2109H91.9531L92.2656 35.2969C92.2917 35.1406 92.3047 34.9974 92.3047 34.8672C92.3307 34.7109 92.3438 34.4766 92.3438 34.1641C92.3438 32.6797 91.6797 31.5469 90.3516 30.7656C89.0234 29.9844 87.0964 29.5938 84.5703 29.5938C82.4349 29.5938 80.013 29.9714 77.3047 30.7266C74.6224 31.4557 71.7448 32.5495 68.6719 34.0078L70.5078 24.2422C73.4505 23.2266 76.224 22.4714 78.8281 21.9766C81.4583 21.4557 83.9583 21.1953 86.3281 21.1953C91.9792 21.1953 96.263 22.1849 99.1797 24.1641C102.096 26.1432 103.555 29.0469 103.555 32.875C103.555 33.8906 103.464 35.0885 103.281 36.4688C103.099 37.849 102.839 39.3724 102.5 41.0391ZM144.531 64.5547C142.526 65.4141 140.456 66.0521 138.32 66.4688C136.211 66.9115 134.076 67.1328 131.914 67.1328C126.029 67.1328 121.406 65.5182 118.047 62.2891C114.714 59.0599 113.047 54.6458 113.047 49.0469C113.047 40.7917 115.43 34.0859 120.195 28.9297C124.987 23.7734 131.237 21.1953 138.945 21.1953C141.497 21.1953 143.88 21.4688 146.094 22.0156C148.307 22.5365 150.404 23.3568 152.383 24.4766L150.312 34.9453C148.724 33.4349 147.044 32.3151 145.273 31.5859C143.503 30.8568 141.602 30.4922 139.57 30.4922C135.143 30.4922 131.536 32.1068 128.75 35.3359C125.99 38.5651 124.609 42.7578 124.609 47.9141C124.609 51.2474 125.404 53.7344 126.992 55.375C128.581 57.0156 130.99 57.8359 134.219 57.8359C136.042 57.8359 137.982 57.4974 140.039 56.8203C142.122 56.1432 144.349 55.1276 146.719 53.7734L144.531 64.5547ZM170.352 5.21875H181.797L175.859 35.7656L191.641 22.25H206.094L186.367 38.5781L198.594 66H186.445L177.773 45.5312L173.242 49.2812L170.039 66H158.594L170.352 5.21875ZM242.383 63.8516C239.909 64.9453 237.331 65.7656 234.648 66.3125C231.966 66.8594 229.193 67.1328 226.328 67.1328C219.87 67.1328 214.961 65.5964 211.602 62.5234C208.242 59.4245 206.562 54.9062 206.562 48.9688C206.562 45.2969 207.135 41.7422 208.281 38.3047C209.427 34.8672 211.042 31.8854 213.125 29.3594C215.312 26.7031 217.917 24.6719 220.938 23.2656C223.958 21.8333 227.214 21.1172 230.703 21.1172C236.146 21.1172 240.508 22.6797 243.789 25.8047C247.07 28.9297 248.711 33.0703 248.711 38.2266C248.711 39.3984 248.62 40.7526 248.438 42.2891C248.281 43.8255 248.021 45.6745 247.656 47.8359H218.008C217.93 48.2786 217.865 48.6953 217.812 49.0859C217.786 49.4766 217.76 49.8672 217.734 50.2578C217.734 52.8359 218.607 54.7891 220.352 56.1172C222.096 57.4193 224.674 58.0703 228.086 58.0703C230.898 58.0703 233.711 57.6667 236.523 56.8594C239.336 56.0521 241.953 54.8802 244.375 53.3438L242.383 63.8516ZM237.812 39.2812C237.917 38.9167 237.982 38.5651 238.008 38.2266C238.06 37.862 238.086 37.5234 238.086 37.2109C238.086 34.9974 237.422 33.2526 236.094 31.9766C234.766 30.7005 232.943 30.0625 230.625 30.0625C228.021 30.0625 225.794 30.8307 223.945 32.3672C222.096 33.9036 220.651 36.2083 219.609 39.2812H237.812ZM297.656 34.1641C296.406 33.0443 295.013 32.224 293.477 31.7031C291.94 31.1562 290.208 30.8828 288.281 30.8828C283.958 30.8828 280.625 32.0286 278.281 34.3203C275.964 36.612 274.284 40.4531 273.242 45.8438L269.336 66H257.812L266.367 22.25H277.812L276.445 29.0469C278.06 26.5469 280.156 24.6198 282.734 23.2656C285.312 21.8854 288.151 21.1953 291.25 21.1953C292.865 21.1953 294.388 21.3906 295.82 21.7812C297.279 22.1719 298.581 22.7188 299.727 23.4219L297.656 34.1641Z" fill="#3A8BBB"/>
<path d="M317.539 51.6641H330.547V66H317.539V51.6641ZM372.266 30.4922C369.531 30.4922 367.383 31.7031 365.82 34.125C364.258 36.5208 363.477 39.8672 363.477 44.1641C363.477 48.4609 364.258 51.8203 365.82 54.2422C367.383 56.638 369.531 57.8359 372.266 57.8359C375.026 57.8359 377.188 56.638 378.75 54.2422C380.312 51.8203 381.094 48.4609 381.094 44.1641C381.094 39.8672 380.312 36.5208 378.75 34.125C377.188 31.7031 375.026 30.4922 372.266 30.4922ZM352.031 44.1641C352.031 37.1068 353.854 31.5208 357.5 27.4062C361.172 23.2656 366.094 21.1953 372.266 21.1953C378.464 21.1953 383.385 23.2656 387.031 27.4062C390.703 31.5208 392.539 37.1068 392.539 44.1641C392.539 51.2214 390.703 56.8203 387.031 60.9609C383.385 65.0755 378.464 67.1328 372.266 67.1328C366.094 67.1328 361.172 65.0755 357.5 60.9609C353.854 56.8203 352.031 51.2214 352.031 44.1641ZM423.75 45.4531C419.479 45.4531 416.497 46 414.805 47.0938C413.112 48.1875 412.266 50.0625 412.266 52.7188C412.266 54.6979 412.852 56.2734 414.023 57.4453C415.195 58.6172 416.784 59.2031 418.789 59.2031C421.81 59.2031 424.154 58.0703 425.82 55.8047C427.487 53.513 428.32 50.3229 428.32 46.2344V45.4531H423.75ZM439.688 41.0391V66H428.32V61.1172C426.94 63.0443 425.169 64.5286 423.008 65.5703C420.846 66.612 418.464 67.1328 415.859 67.1328C410.885 67.1328 407.005 65.8177 404.219 63.1875C401.458 60.5573 400.078 56.8854 400.078 52.1719C400.078 47.0677 401.732 43.3047 405.039 40.8828C408.346 38.4349 413.464 37.2109 420.391 37.2109H428.32V35.2969C428.32 33.4479 427.643 32.0547 426.289 31.1172C424.961 30.1536 422.995 29.6719 420.391 29.6719C417.656 29.6719 415 30.0234 412.422 30.7266C409.87 31.4036 407.201 32.4974 404.414 34.0078V24.2422C406.94 23.2005 409.505 22.4323 412.109 21.9375C414.714 21.4427 417.474 21.1953 420.391 21.1953C427.5 21.1953 432.487 22.6406 435.352 25.5312C438.242 28.4219 439.688 33.5911 439.688 41.0391ZM483.32 23.6172V33.6172C481.211 32.263 479.01 31.2474 476.719 30.5703C474.453 29.8672 472.174 29.5156 469.883 29.5156C467.331 29.5156 465.404 29.8932 464.102 30.6484C462.799 31.3776 462.148 32.4714 462.148 33.9297C462.148 36.013 464.935 37.7057 470.508 39.0078L470.938 39.125L474.219 39.9062C478.385 40.8958 481.432 42.4974 483.359 44.7109C485.312 46.8984 486.289 49.8672 486.289 53.6172C486.289 58.1224 484.805 61.5078 481.836 63.7734C478.893 66.013 474.453 67.1328 468.516 67.1328C465.885 67.1328 463.19 66.8984 460.43 66.4297C457.669 65.987 454.87 65.3099 452.031 64.3984V54.3984C454.557 55.8307 457.122 56.9245 459.727 57.6797C462.357 58.4349 464.896 58.8125 467.344 58.8125C470.026 58.8125 472.057 58.4219 473.438 57.6406C474.818 56.8594 475.508 55.7266 475.508 54.2422C475.508 52.7839 475.013 51.6641 474.023 50.8828C473.06 50.1016 470.742 49.2682 467.07 48.3828L463.906 47.6797C459.531 46.6901 456.341 45.1406 454.336 43.0312C452.331 40.9219 451.328 38.0964 451.328 34.5547C451.328 30.3359 452.852 27.0547 455.898 24.7109C458.945 22.3672 463.229 21.1953 468.75 21.1953C471.224 21.1953 473.685 21.4036 476.133 21.8203C478.607 22.2109 481.003 22.8099 483.32 23.6172ZM501.445 22.25H524.102V57.2109H538.32V66H498.398V57.2109H512.656V31.0391H501.445V22.25ZM512.656 0.960938H524.102V14.3203H512.656V0.960938ZM579.727 23.6172V33.6172C577.617 32.263 575.417 31.2474 573.125 30.5703C570.859 29.8672 568.581 29.5156 566.289 29.5156C563.737 29.5156 561.81 29.8932 560.508 30.6484C559.206 31.3776 558.555 32.4714 558.555 33.9297C558.555 36.013 561.341 37.7057 566.914 39.0078L567.344 39.125L570.625 39.9062C574.792 40.8958 577.839 42.4974 579.766 44.7109C581.719 46.8984 582.695 49.8672 582.695 53.6172C582.695 58.1224 581.211 61.5078 578.242 63.7734C575.299 66.013 570.859 67.1328 564.922 67.1328C562.292 67.1328 559.596 66.8984 556.836 66.4297C554.076 65.987 551.276 65.3099 548.438 64.3984V54.3984C550.964 55.8307 553.529 56.9245 556.133 57.6797C558.763 58.4349 561.302 58.8125 563.75 58.8125C566.432 58.8125 568.464 58.4219 569.844 57.6406C571.224 56.8594 571.914 55.7266 571.914 54.2422C571.914 52.7839 571.419 51.6641 570.43 50.8828C569.466 50.1016 567.148 49.2682 563.477 48.3828L560.312 47.6797C555.938 46.6901 552.747 45.1406 550.742 43.0312C548.737 40.9219 547.734 38.0964 547.734 34.5547C547.734 30.3359 549.258 27.0547 552.305 24.7109C555.352 22.3672 559.635 21.1953 565.156 21.1953C567.63 21.1953 570.091 21.4036 572.539 21.8203C575.013 22.2109 577.409 22.8099 579.727 23.6172Z" fill="white"/>
</svg>
